<?xml version="1.0" encoding="utf-8"?>
<!-- Generator: Adobe Illustrator 25.0.0, SVG Export Plug-In . SVG Version: 6.00 Build 0)  -->
<svg version="1.1" xmlns="http://www.w3.org/2000/svg" xmlns:xlink="http://www.w3.org/1999/xlink" x="0px" y="0px"
	 viewBox="0 0 805 600" style="enable-background:new 0 0 805 600;" xml:space="preserve">
<style type="text/css">
	.st0{fill:#F4F0E6;}
	.st1{fill:#EAEAEA;stroke:#FFFFFF;stroke-width:2;}
	.st2{fill:#DBECDE;stroke:#FFFFFF;stroke-width:2;}
	.st3{fill:#63B0A7;stroke:#FFFFFF;stroke-width:2;}
	.st4{fill:#B5D3C5;stroke:#FFFFFF;stroke-width:2;}
	.st5{fill:#C7E1D0;stroke:#F9F4EA;stroke-width:2;}
	.st6{font-family:'Arial-BoldMT';}
	.st7{font-size:10px;}
	.st8{font-family:'SourceSansPro-Bold';}
	.st9{font-size:19px;}
</style>
<g id="Layer_2">
	<rect y="0" class="st0" width="805" height="600"/>
</g>
<g id="Layer_1">
	<path id="_x31_4" class="st1" d="M463.5,580.4L434,523.1l-23.4,11.1l-8.7,11.7l12.1,39.7L463.5,580.4z"/>
	<path id="_x39_" class="st1" d="M507.1,87.4l17.8,13.5l21.9-6.1l-5.3-28.4l-29.5,5L507.1,87.4z"/>
	<path id="_x32_4" class="st1" d="M117.3,259.4V319l39.4-10.7L117.3,259.4z"/>
	<path id="_x31_0" class="st1" d="M405.4,105.1l21.1-17.5l-6.4-19.3l-27.5,0.4l1.4,32.5L405.4,105.1z"/>
	<path id="_x31_" class="st1" d="M157.6,309l-9.7,37.8l28.8,7.8l0.1-0.1l-0.3-36.1L157.6,309z"/>
	<path id="_x37_" class="st1" d="M299.9,33.4l-40.1,13l37.4,26.1l6.2-4.7l4.1-9.3L299.9,33.4z"/>
	<path id="_x32_96" class="st2" d="M504.4,29.5l-11.8-6.8l-45.3-4.8l-20.5,22.8l-6.8,27.5l6.4,19.3l24.1,21.5l7,2.2l33.7-8.7
		l15.7-15.3l4.9-16.1L504.4,29.5z"/>
	<path id="_x32_5" class="st1" d="M405.5,13.5l-15.4-1.6l-2.3,6.7l6.8,8.9l8.7-3.1L405.5,13.5z"/>
	<path id="_x34_" class="st1" d="M426.9,40.7l-23.7-16.3l-8.7,3.1l-7.1,37.2l5.1,4l27.5-0.4L426.9,40.7z"/>
	<path id="_x31_63" class="st1" d="M402.9,486.8l37.5-18.5l-39.6-26.4l-11.7,42.7L402.9,486.8z"/>
	<path id="_x32_1" class="st1" d="M343.2,284.7l-38.9-11L281.1,305l60.8,19L343.2,284.7z"/>
	<path id="_x33_0" class="st1" d="M597.6,83.3l-14.7-8.5l-29.1,23.9l-1.2,30.6l63.1,22.3l17.2-19.7L597.6,83.3z"/>
	<path id="_x35_3" class="st1" d="M327.1,24.6l11.1,13.2l9.2-19.8L327.1,24.6z"/>
	<path id="_x37_5" class="st1" d="M504.4,29.5l7.5,41.8l29.5-5l7.6-11L504.4,29.5z"/>
	<path id="_x38_" class="st1" d="M327.7,58.3l-20.1,0.3l-4.1,9.3l26.9,6.9L327.7,58.3z"/>
	<path id="_x39_0" class="st2" d="M434.6,518.5l-0.7,4.6l29.6,57.3l29.1-3.1l74.4-43L551.8,487l-97.1-11.4L434.6,518.5z"/>
	<path id="_x35_52" class="st2" d="M370.8,104.9l-20.7,17.9l-2.4,8.8l10,33.9l26.9,20.7l44.4-35.5l-3.6-20.8l-20.1-24.9l-11.4-3.9
		L370.8,104.9z"/>
	<path id="_x32_" class="st1" d="M405.4,105.1l20.1,24.9l25.1-20.9l-24.1-21.5L405.4,105.1z"/>
	<path id="_x33_" class="st1" d="M364.5,217.1l20.3-30.8l-26.9-20.7l-41.2,13.7l-4.7,5.8l4.7,17.8L364.5,217.1z"/>
	<path id="_x31_608" class="st2" d="M256.7,47.5l-78.5,70.7l103,30.1l17.3-15.7l7.6-25.8l-8.9-34.2l-37.4-26.1L256.7,47.5z"/>
	<path id="_x31_09" class="st1" d="M372,590l7.1-0.7l0.3-36.7l-41.1-0.3l-6.4,24.7L372,590z"/>
	<path id="_x33_72" class="st1" d="M338.5,47.2l18.2,23.6l3.5,1.2l27.2-7.4l7.1-37.2l-6.8-8.9l-18.1-7.8L347.3,18l-9.2,19.8
		L338.5,47.2z"/>
	<path id="_x31_04" class="st1" d="M381.1,497.2l-12.6,14.2l14.4,37.2l18.9-2.7l8.7-11.7L381.1,497.2z"/>
	<path id="_x32_00" class="st1" d="M343.2,284.7l21.3-67.6l-48-14.2l-12.3,70.8L343.2,284.7z"/>
	<path id="_x32_0" class="st1" d="M597.6,516.7l46-63.3L551.8,487l15.3,47.4L597.6,516.7z"/>
	<path id="_x31_8751" class="st3" d="M454.7,475.6l97.1,11.4l91.8-33.6l25.3-34.8L694.1,300l-21.2-99.7l-57.2-48.6l-63.1-22.3
		l-33.4-2.7l-17.2,1l-37.2,8l-35.7,15.2l-44.4,35.5l-20.3,30.8l-21.3,67.6l-1.3,39.3l59,117.8l39.6,26.4L454.7,475.6z"/>
	<path id="_x34_9" class="st1" d="M143.6,377.1l18,5.3l15-27.9l-28.8-7.8l-3.6,1.7l-4.7,8.8L143.6,377.1z"/>
	<path id="_x34_54" class="st1" d="M332.5,538.4l-63.7,18l63.1,20.5l6.4-24.7L332.5,538.4z"/>
	<path id="_x32_355" class="st4" d="M178.2,118.2l-11.6,10.4l-49.3,110.8v20l39.4,48.9l0.9,0.7l18.9,9.3l29,8.6l75.6-21.9l23.2-31.4
		l12.3-70.8l-4.7-17.8l-30.6-36.7L178.2,118.2z"/>
	<path id="_x38_2" class="st1" d="M327.3,101.8l-21.2,5l-7.6,25.8l17.9,11l31.4-11.9l2.4-8.8L327.3,101.8z"/>
	<path id="_x31_1" class="st1" d="M672.9,200.3l-4-18.9l-36-49.5l-17.2,19.7L672.9,200.3z"/>
	<path id="_x31_08" class="st1" d="M434.6,518.5l-31.7-31.7l-13.8-2.2l-8,12.7l29.5,36.9l23.4-11.1L434.6,518.5z"/>
	<path id="_x31_3" class="st1" d="M429.2,150.8l35.7-15.2l-7.2-24.3l-7-2.2L425.5,130L429.2,150.8z"/>
	<path id="_x31_7" class="st1" d="M379.4,552.6l-0.3,36.7l34.8-3.7l-12.1-39.7l-18.9,2.7L379.4,552.6z"/>
	<path id="_x35_6" class="st1" d="M370.8,104.9l23.2-3.7l-1.4-32.5l-5.1-4L360.2,72L370.8,104.9z"/>
	<path id="_x31_5" class="st1" d="M117.3,332.9v27.7l0.7,1.6l21.6-5l4.7-8.8L117.3,332.9z"/>
	<path id="_x31_62" class="st1" d="M502.1,127.6l-10.7-25l-33.7,8.7l7.2,24.3L502.1,127.6z"/>
	<path id="_x36_9" class="st1" d="M390.1,11.9L372,10l-2.3,0.8l18.1,7.8L390.1,11.9z"/>
	<path id="_x31_41" class="st1" d="M298.5,132.6l-17.3,15.7l30.6,36.7l4.7-5.8l-0.2-35.7L298.5,132.6z"/>
	<path id="_x33_4" class="st1" d="M327.1,24.6l-27.2,8.8l7.6,25.2l20.1-0.3l10.8-11.1l-0.4-9.4L327.1,24.6z"/>
	<path id="_x31_27" class="st1" d="M434.6,518.5l20.1-43l-14.3-7.3l-37.5,18.5L434.6,518.5z"/>
	<path id="_x32_32" class="st1" d="M553.8,98.7l29.1-23.9l-33.9-19.5l-7.6,11l5.3,28.4L553.8,98.7z"/>
	<path id="_x31_20" class="st1" d="M176.5,318.3l0.3,36.1l28.7-27.5L176.5,318.3z"/>
	<path id="_x36_" class="st1" d="M553.8,98.7l-7.1-4l-21.9,6.1l-5.6,25.8l33.4,2.7L553.8,98.7z"/>
	<path id="_x33_10" class="st1" d="M370.8,104.9L360.2,72l-3.5-1.2l-23.5,6.9l-5.8,24.1l22.8,21L370.8,104.9z"/>
	<path id="_x32_50" class="st1" d="M117.3,319v13.8l27,15.6l3.6-1.7l9.7-37.8l-0.9-0.7L117.3,319z"/>
	<path id="_x33_1" class="st5" d="M381.1,497.2l8-12.7l11.7-42.7l-59-117.8l-60.8-19L205.4,327l-28.7,27.5l-0.1,0.1l-15,27.9
		l-12.1,50.7l17.1,38.3l90.1,81.1l12.1,3.9l63.7-18l36-27L381.1,497.2z"/>
	<path id="_x31_10" class="st1" d="M143.6,377.1l-15.6,7.7l21.5,48.3l12.1-50.7L143.6,377.1z"/>
	<path id="_x35_5" class="st1" d="M333.1,77.7l-2.8-2.9l-26.9-6.9l-6.2,4.7l8.9,34.2l21.2-5L333.1,77.7z"/>
	<path id="_x35_" class="st1" d="M332.5,538.4l5.8,13.8l41.1,0.3l3.5-4l-14.4-37.2L332.5,538.4z"/>
	<path id="_x38_0" class="st1" d="M405.5,13.5l-2.3,10.9l23.7,16.3l20.5-22.8L405.5,13.5z"/>
	<path id="_x38_1" class="st1" d="M507.1,87.4l-15.7,15.3l10.7,25l17.2-1l5.6-25.8L507.1,87.4z"/>
	<path id="_x36_6" class="st1" d="M357.8,165.5l-10-33.9l-31.4,11.9l0.2,35.7L357.8,165.5z"/>
	<path id="_x31_2" class="st1" d="M128,384.8l15.6-7.7l-4-19.8l-21.6,5L128,384.8z"/>
	<path id="_x32_15" class="st1" d="M333.1,77.7l23.5-6.9l-18.2-23.6l-10.8,11.1l2.7,16.5L333.1,77.7z"/>
	<text transform="matrix(1 0 0 1 325.848 554.9357)" class="st6 st7">Adult Education,Wastewater Treatment Plant</text>
	<text transform="matrix(1 0 0 1 388.9046 78.6255)" class="st6 st7">Ambulatory Surgical Center,Transportation Terminal/Station</text>
	<text transform="matrix(1 0 0 1 78.963 293.0663)" class="st6 st7">Automobile Dealership</text>
	<text transform="matrix(1 0 0 1 379.7445 79.6529)" class="st6 st7">Bank Branch</text>
	<text transform="matrix(1 0 0 1 88.188 330.8615)" class="st6 st7">Bar/Nightclub,Convention Center</text>
	<text transform="matrix(1 0 0 1 231.3629 48.4883)" class="st6 st7">Bowling Alley,Food Sales</text>
	<text transform="matrix(1 0 0 1 426.3767 59.8634)" class="st6 st7">College/University</text>
	<text transform="matrix(1 0 0 1 277.5067 15.236)" class="st6 st7">Courthouse,Other - Entertainment/Public Assembly</text>
	<text transform="matrix(1 0 0 1 176.1147 45.0133)" class="st6 st7">Data Center,Energy/Power Station,Mailing Center/Post Office,Other - Services,Prison/Incarceration</text>
	<text transform="matrix(1 0 0 1 371.6992 463.2947)" class="st6 st7">Distribution Center</text>
	<text transform="matrix(1 0 0 1 286.1822 296.0382)" class="st6 st7">Enclosed Mall</text>
	<text transform="matrix(1 0 0 1 527.2229 111.4768)" class="st6 st7">Financial Office,Laboratory</text>
	<text transform="matrix(1 0 0 1 313.2908 23.6708)" class="st6 st7">Fire Station</text>
	<text transform="matrix(1 0 0 1 450.0088 49.6819)" class="st6 st7">Fitness Center/Health Club/Gym</text>
	<text transform="matrix(1 0 0 1 235.0533 62.2429)" class="st6 st7">Food Service,Other - Public Services</text>
	<text transform="matrix(1 0 0 1 376.0144 522.6669)" class="st6 st7">Hospital (General Medical &amp; Surgical),Police Station</text>
	<text transform="matrix(1 0 0 1 378.5756 136.1151)" class="st6 st7">Hotel</text>
	<text transform="matrix(1 0 0 1 278.4868 103.9774)" class="st6 st7">Ice/Curling Rink,Other - Restaurant/Bar,Single Family Home,Zoo</text>
	<text transform="matrix(1 0 0 1 112.8721 188.4951)" class="st6 st7">Indoor Arena,Lifestyle Center,Personal Services (Health/Beauty, Dry Cleaning, etc.),Veterinary Office</text>
	<text transform="matrix(1 0 0 1 227.999 98.233)" class="st6 st7">K-12 School</text>
	<text transform="matrix(1 0 0 1 343.8777 565.5612)" class="st6 st7">Library</text>
	<text transform="matrix(1 0 0 1 298.5049 37.409)" class="st6 st7">Manufacturing/Industrial Plant</text>
	<text transform="matrix(1 0 0 1 356.0509 523.4658)" class="st6 st7">Medical Office</text>
	<text transform="matrix(1 0 0 1 287.9374 242.8083)" class="st6 st7">Mixed Use Property</text>
	<text transform="matrix(1 0 0 1 497.2083 490.1803)" class="st6 st7">Movie Theater,Other - Specialty Hospital</text>
	<text transform="matrix(1 0 0 1 454.7034 308.2953)" class="st8 st9">Multifamily Housing</text>
	<text transform="matrix(1 0 0 1 138.776 360.5671)" class="st6 st7">Museum</text>
	<text transform="matrix(1 0 0 1 246.4511 553.8068)" class="st6 st7">Non-Refrigerated Warehouse</text>
	<text transform="matrix(1 0 0 1 206.2402 222.9208)" class="st6 st7">Office</text>
	<text transform="matrix(1 0 0 1 312.6488 118.7388)" class="st6 st7">Other</text>
	<text transform="matrix(1 0 0 1 604.5289 159.0293)" class="st6 st7">Other - Education</text>
	<text transform="matrix(1 0 0 1 344.1885 507.6715)" class="st6 st7">Other - Lodging/Residential</text>
	<text transform="matrix(1 0 0 1 421.5082 125.9634)" class="st6 st7">Other - Mall</text>
	<text transform="matrix(1 0 0 1 352.4943 565.8514)" class="st6 st7">Other - Recreation</text>
	<text transform="matrix(1 0 0 1 316.4641 80.9045)" class="st6 st7">Other - Technology/Science</text>
	<text transform="matrix(1 0 0 1 28.1058 345.0757)" class="st6 st7">Outpatient Rehabilitation/Physical Therapy</text>
	<text transform="matrix(1 0 0 1 465.9709 115.5293)" class="st6 st7">Parking</text>
	<text transform="matrix(1 0 0 1 344.7108 9.3103)" class="st6 st7">Performing Arts</text>
	<text transform="matrix(1 0 0 1 258.94 151.853)" class="st6 st7">Pre-school/Daycare</text>
	<text transform="matrix(1 0 0 1 264.6196 39.2261)" class="st6 st7">Refrigerated Warehouse</text>
	<text transform="matrix(1 0 0 1 315.6082 488.152)" class="st6 st7">Repair Services (Vehicle, Shoe, Locksmith, etc.)</text>
	<text transform="matrix(1 0 0 1 499.6738 73.235)" class="st6 st7">Residence Hall/Dormitory</text>
	<text transform="matrix(1 0 0 1 130.4807 330.6743)" class="st6 st7">Residential Care Facility</text>
	<text transform="matrix(1 0 0 1 513.8337 109.4639)" class="st6 st7">Restaurant</text>
	<text transform="matrix(1 0 0 1 323.9613 90.7499)" class="st6 st7">Retail Store</text>
	<text transform="matrix(1 0 0 1 93.8969 324.4213)" class="st6 st7">Self-Storage Facility</text>
	<text transform="matrix(1 0 0 1 222.1667 425.4425)" class="st6 st7">Senior Care Community</text>
	<text transform="matrix(1 0 0 1 88.5085 394.3487)" class="st6 st7">Senior Living Community</text>
	<text transform="matrix(1 0 0 1 271.846 82.4709)" class="st6 st7">Social/Meeting Hall</text>
	<text transform="matrix(1 0 0 1 279.4842 534.6793)" class="st6 st7">Stadium (Open),Vocational School</text>
	<text transform="matrix(1 0 0 1 404.1604 20.9933)" class="st6 st7">Strip Mall</text>
	<text transform="matrix(1 0 0 1 447.2025 103.5008)" class="st6 st7">Supermarket/Grocery Store</text>
	<text transform="matrix(1 0 0 1 253.7937 151.6741)" class="st6 st7">Urgent Care/Clinic/Other Outpatient</text>
	<text transform="matrix(1 0 0 1 67.0262 365.523)" class="st6 st7">Wholesale Club/Supercenter</text>
	<text transform="matrix(1 0 0 1 303.9029 58.9894)" class="st6 st7">Worship Facility</text>
</g>
</svg>
